<svg xmlns="http://www.w3.org/2000/svg" viewBox="0 0 512 512" role="img" aria-labelledby="title desc">
  <title id="title">PromptForge Icon</title>
  <desc id="desc">Rounded gradient square with glowing forge motif representing crafted prompts.</desc>
  <defs>
    <linearGradient id="pf-bg" x1="0%" y1="0%" x2="100%" y2="100%">
      <stop offset="0%" stop-color="#111827" />
      <stop offset="45%" stop-color="#3730a3" />
      <stop offset="100%" stop-color="#7c3aed" />
    </linearGradient>
    <radialGradient id="pf-glow" cx="50%" cy="36%" r="56%">
      <stop offset="0%" stop-color="#fef3c7" stop-opacity="0.92" />
      <stop offset="55%" stop-color="#c4b5fd" stop-opacity="0.35" />
      <stop offset="100%" stop-color="#312e81" stop-opacity="0" />
    </radialGradient>
    <linearGradient id="pf-plate" x1="0%" y1="0%" x2="100%" y2="0%">
      <stop offset="0%" stop-color="#a5b4fc" />
      <stop offset="100%" stop-color="#c7d2fe" />
    </linearGradient>
    <linearGradient id="pf-base" x1="0%" y1="0%" x2="0%" y2="100%">
      <stop offset="0%" stop-color="#0f172a" />
      <stop offset="100%" stop-color="#1e1b4b" />
    </linearGradient>
  </defs>
  <rect x="0" y="0" width="512" height="512" rx="120" fill="url(#pf-bg)" />
  <circle cx="256" cy="204" r="184" fill="url(#pf-glow)" />
  <rect x="156" y="308" width="200" height="80" rx="40" fill="url(#pf-plate)" fill-opacity="0.95" />
  <rect x="120" y="352" width="272" height="96" rx="48" fill="url(#pf-base)" fill-opacity="0.9" />
  <rect x="236" y="120" width="40" height="140" rx="20" fill="#fde68a" fill-opacity="0.9" />
  <rect x="188" y="188" width="136" height="68" rx="34" fill="#f97316" fill-opacity="0.92" />
  <rect x="204" y="244" width="104" height="56" rx="28" fill="#4c1d95" fill-opacity="0.92" />
  <circle cx="180" cy="420" r="30" fill="#4338ca" fill-opacity="0.92" />
  <circle cx="332" cy="420" r="30" fill="#4338ca" fill-opacity="0.92" />
  <circle cx="256" cy="156" r="48" fill="#fde68a" fill-opacity="0.96" />
  <circle cx="256" cy="156" r="24" fill="#fefce8" />
  <circle cx="292" cy="176" r="18" fill="#facc15" fill-opacity="0.85" />
</svg>
